#N canvas 443 401 1102 671 10;
#X declare -path ../Build;
#X obj 81 580 dac~;
#X obj 79 436 readsfx~ 2;
#X obj 69 37 declare -path ../Build;
#X obj 80 260 pack s 0;
#X floatatom 124 241 10 0 0 1 Offset_in_samples - -, f 10;
#X obj 81 117 openpanel;
#X msg 367 218 symbol /Users/johannes/Music/iTunes/iTunes Media/Music/Autechre/Draft
7.30/01 Xylin Room.mp3;
#X msg 80 334 open \$1 \, 1;
#X msg 113 377 1;
#X text 251 345 Works;
#X text 299 371 Shouldn't crash;
#X msg 181 398 readsfx~-help.pd;
#X obj 267 272 r open;
#X obj 585 103 loadbang;
#X msg 586 131 \; pd dsp 1;
#X obj 267 296 symbol;
#X obj 104 291 print;
#X obj 437 317 makefilename;
#X obj 587 367 readsf~;
#X msg 38 156 open \$1;
#X msg 81 94 symbol ~/kod/readsfx;
#X msg 90 360 0;
#X msg 168 371 open asdasd.wav \, 1;
#X msg 182 433 info;
#X msg 165 345 open Bats.m4a;
#X obj 136 463 route bang list;
#X obj 466 418 unpack f f f f f f;
#X msg 476 476 frames \$1;
#X msg 500 498 samplerate \$1;
#X msg 520 520 channels \$1;
#X msg 544 550 bits \$1;
#X msg 575 576 is_big_endian \$1;
#X msg 466 449 ms \$1;
#X obj 136 485 print EOF;
#X obj 469 607 print INFO;
#X connect 1 0 0 0;
#X connect 1 1 0 1;
#X connect 1 2 25 0;
#X connect 3 0 7 0;
#X connect 3 0 16 0;
#X connect 4 0 3 1;
#X connect 5 0 19 0;
#X connect 6 0 3 0;
#X connect 7 0 1 0;
#X connect 8 0 1 0;
#X connect 11 0 1 0;
#X connect 12 0 15 0;
#X connect 15 0 7 0;
#X connect 19 0 1 0;
#X connect 20 0 5 0;
#X connect 21 0 1 0;
#X connect 22 0 1 0;
#X connect 23 0 1 0;
#X connect 24 0 1 0;
#X connect 25 0 33 0;
#X connect 25 1 26 0;
#X connect 26 0 32 0;
#X connect 26 1 27 0;
#X connect 26 2 28 0;
#X connect 26 3 29 0;
#X connect 26 4 30 0;
#X connect 26 5 31 0;
#X connect 27 0 34 0;
#X connect 28 0 34 0;
#X connect 29 0 34 0;
#X connect 30 0 34 0;
#X connect 31 0 34 0;
#X connect 32 0 34 0;
