#N canvas 421 363 1102 671 10;
#X declare -path ../Build;
#X obj 153 20 declare -path ../Build;
#X obj 180 71 loadbang;
#X obj 157 161 sfxinfo;
#X obj 139 80 bng 15 250 50 0 empty empty empty 17 7 0 10 -262144 -1
-1;
#X obj 269 70 metro 10;
#X msg 269 46 0;
#X msg 161 114 read ../../readsfx-old/Build/Bats.wav;
#X msg 235 135 read Bats.m4a;
#X obj 157 186 unpack f f f f f f;
#X msg 177 209 frames \$1;
#X msg 201 231 samplerate \$1;
#X msg 221 253 channels \$1;
#X msg 245 283 bits \$1;
#X msg 276 309 is_big_endian \$1;
#X obj 170 340 print;
#X msg 100 217 ms \$1;
#X connect 1 0 6 0;
#X connect 2 0 8 0;
#X connect 3 0 6 0;
#X connect 4 0 6 0;
#X connect 5 0 4 0;
#X connect 6 0 2 0;
#X connect 7 0 2 0;
#X connect 8 0 15 0;
#X connect 8 1 9 0;
#X connect 8 2 10 0;
#X connect 8 3 11 0;
#X connect 8 4 12 0;
#X connect 8 5 13 0;
#X connect 9 0 14 0;
#X connect 10 0 14 0;
#X connect 11 0 14 0;
#X connect 12 0 14 0;
#X connect 13 0 14 0;
#X connect 15 0 14 0;
